<svg width="3387" height="326" xmlns="http://www.w3.org/2000/svg" xmlns:xlink="http://www.w3.org/1999/xlink" xml:space="preserve" overflow="hidden"><g transform="translate(-272 -1808)"><text font-family="Arial,Arial_MSFontService,sans-serif" font-weight="700" font-size="46" transform="matrix(1 0 0 1 305.04 2043)">Signal Features</text><text font-family="Arial,Arial_MSFontService,sans-serif" font-weight="700" font-size="46" transform="matrix(1 0 0 1 346.486 1881)">Raw Signal</text><path d="M1845 2022.17C1845 2009.92 1854.92 2000 1867.17 2000L2321.83 2000C2334.08 2000 2344 2009.92 2344 2022.17L2344 2110.83C2344 2123.08 2334.08 2133 2321.83 2133L1867.17 2133C1854.92 2133 1845 2123.08 1845 2110.83Z" fill="#99FFCC" fill-rule="evenodd"/><text font-family="Arial,Arial_MSFontService,sans-serif" font-weight="400" font-size="41" transform="matrix(1 0 0 1 1923.88 2078)">Regression Model</text><path d="M802 1915.17C802 1902.92 811.924 1893 824.167 1893L1279.83 1893C1292.08 1893 1302 1902.92 1302 1915.17L1302 2003.83C1302 2016.08 1292.08 2026 1279.83 2026L824.167 2026C811.924 2026 802 2016.08 802 2003.83Z" fill="#E9C3F3" fill-rule="evenodd"/><text font-family="Arial,Arial_MSFontService,sans-serif" font-weight="400" font-size="41" transform="matrix(1 0 0 1 869.523 1970)">Classification Model</text><path d="M2629 2022.33C2629 2010 2639 2000 2651.33 2000L3105.67 2000C3118 2000 3128 2010 3128 2022.33L3128 2111.67C3128 2124 3118 2134 3105.67 2134L2651.33 2134C2639 2134 2629 2124 2629 2111.67Z" fill="#33CCFF" fill-rule="evenodd"/><text font-family="Arial,Arial_MSFontService,sans-serif" font-weight="400" font-size="41" transform="matrix(1 0 0 1 2723.8 2078)">Clustering Model</text><path d="M1368.5 1844.06 1416.25 1844.06 1416.25 1850.94 1368.5 1850.94ZM1411.67 1833.75 1439.17 1847.5 1411.67 1861.25Z"/><path d="M1299.5 1959.5 1370.17 1959.5" stroke="#000000" stroke-width="6.875" stroke-miterlimit="8" fill="none" fill-rule="evenodd"/><path d="M0 0 0.000360892 112.24" stroke="#000000" stroke-width="6.875" stroke-miterlimit="8" fill="none" fill-rule="evenodd" transform="matrix(1 0 0 -1 1369.5 1959.74)"/><path d="M0 0 0.000360892 112.24" stroke="#000000" stroke-width="6.875" stroke-miterlimit="8" fill="none" fill-rule="evenodd" transform="matrix(1 0 0 -1 1369.5 2068.74)"/><path d="M1370.5 2061.06 1418.25 2061.06 1418.25 2067.94 1370.5 2067.94ZM1413.67 2050.75 1441.17 2064.5 1413.67 2078.25Z"/><text font-family="Arial,Arial_MSFontService,sans-serif" font-weight="400" font-size="41" transform="matrix(1 0 0 1 1445.1 1864)">Unmodification</text><text font-family="Arial,Arial_MSFontService,sans-serif" font-weight="400" font-size="41" transform="matrix(1 0 0 1 1448.81 2078)">Modification</text><path d="M1682.5 2062.06 1809.07 2062.06 1809.07 2068.94 1682.5 2068.94ZM1804.48 2051.75 1831.98 2065.5 1804.48 2079.25Z"/><text font-family="Arial,Arial_MSFontService,sans-serif" font-weight="400" font-size="41" transform="matrix(1 0 0 1 1877.05 1988)">Predict modification rate </text><text font-family="Arial,Arial_MSFontService,sans-serif" font-weight="400" font-size="41" transform="matrix(1 0 0 1 825.905 1880)">Predict modification event </text><path d="M0.0112725-3.43748 241.991-2.64396 241.968 4.231-0.0112725 3.43748ZM237.441-12.9714 264.896 0.868668 237.351 14.5284Z" transform="matrix(1 0 0 -1 2357.5 2066.37)"/><text font-family="Arial,Arial_MSFontService,sans-serif" font-weight="400" font-size="46" transform="matrix(1 0 0 1 2356.42 1968)">modification </text><text font-family="Arial,Arial_MSFontService,sans-serif" font-weight="400" font-size="46" transform="matrix(1 0 0 1 2438.92 2023)">rate </text><text font-family="Arial,Arial_MSFontService,sans-serif" font-weight="400" font-size="41" transform="matrix(1 0 0 1 2651.58 1987)">Predict modification read </text><text font-family="Arial,Arial_MSFontService,sans-serif" font-weight="400" font-size="46" transform="matrix(1 0 0 1 3160.4 2049)">output</text><path d="M3136.51 2062.06 3301.38 2062.75 3301.35 2069.63 3136.49 2068.94ZM3296.84 2052.42 3324.29 2066.28 3296.73 2079.92Z"/><path d="M3329 2019.67C3329 2009.36 3337.36 2001 3347.67 2001L3640.33 2001C3650.64 2001 3659 2009.36 3659 2019.67L3659 2094.33C3659 2104.64 3650.64 2113 3640.33 2113L3347.67 2113C3337.36 2113 3329 2104.64 3329 2094.33Z" fill="#FFCC99" fill-rule="evenodd"/><text font-family="Arial,Arial_MSFontService,sans-serif" font-weight="400" font-size="41" transform="matrix(1 0 0 1 3387.74 2072)">Single read</text><path d="M642.5 1957.06 769.067 1957.06 769.067 1963.94 642.5 1963.94ZM764.484 1946.75 791.984 1960.5 764.484 1974.25Z"/><text font-family="Arial,Arial_MSFontService,sans-serif" font-weight="400" font-size="46" transform="matrix(1 0 0 1 657.919 1932)">Input</text><path d="M428 1931.31 457.309 1931.31 457.309 1902 471.691 1902 471.691 1931.31 501 1931.31 501 1948.69 471.691 1948.69 471.691 1978 457.309 1978 457.309 1948.69 428 1948.69Z" fill="#F985A1" fill-rule="evenodd"/></g></svg>